<?xml version="1.0" encoding="utf-8"?>

<!-- License Agreement at http://iconmonstr.com/license/ -->

<!DOCTYPE svg PUBLIC "-//W3C//DTD SVG 1.1//EN" "http://www.w3.org/Graphics/SVG/1.1/DTD/svg11.dtd">
<svg version="1.1" xmlns="http://www.w3.org/2000/svg" xmlns:xlink="http://www.w3.org/1999/xlink" x="0px" y="0px"
	 width="512px" height="512px" viewBox="0 0 512 512" enable-background="new 0 0 512 512" xml:space="preserve">
<path id="tags-4-icon" d="M255.731,111.159l153.927,153.748L307.032,367.53L153.185,213.591V111.159H255.731z M271.045,74.159
	h-154.86v154.75l190.84,190.953L462,264.892L271.045,74.159z M221.931,179.923c-10.618,10.619-27.837,10.619-38.453,0
	c-10.618-10.619-10.618-27.836,0-38.453c10.616-10.619,27.835-10.619,38.453,0C232.552,152.087,232.552,169.304,221.931,179.923z
	 M256,411.136l-26.704,26.705L50,258.571V118.72h36.164v122.619L256,411.136z"/>
</svg>
